Coordinates
version=1
nRows=22
nColumns=24
inDegrees=yes

Units are S.I. units (second, meters, Newtons, ...)
Angles are in degrees.

endheader
time	pelvis_tilt	pelvis_list	pelvis_rotation	pelvis_tx	pelvis_ty	pelvis_tz	hip_flexion_r	hip_adduction_r	hip_rotation_r	knee_angle_r	ankle_angle_r	subtalar_angle_r	mtp_angle_r	hip_flexion_l	hip_adduction_l	hip_rotation_l	knee_angle_l	ankle_angle_l	subtalar_angle_l	mtp_angle_l	lumbar_extension	lumbar_bending	lumbar_rotation
      2.88500000	    -19.35535437	     -0.05156976	    362.01322090	      0.16941791	      1.37613369	     -1.03419915	     27.49789312	      2.65621484	      2.23188765	    -12.18350235	     -1.41373487	     -9.92124928	      5.91899313	     33.18289399	      3.35822910	      5.09604551	    -55.70158972	     -2.31974356	     10.48130648	     40.76173002	     26.82139449	      7.59364870	   -213.40600975
      2.89000000	    -19.45693444	      0.08236576	    362.02463050	      0.17373941	      1.37652863	     -1.03396627	     27.26934922	      2.54622346	      2.35408083	    -12.07713925	     -1.25687767	    -10.00031242	      5.86330976	     33.84327987	      3.49250847	      5.03225162	    -55.57387109	     -1.80956445	     10.37109223	     40.08291279	     26.86444330	      7.41026280	   -213.35721420
      2.89500000	    -19.51188340	      0.23038324	    362.04156660	      0.17809813	      1.37697641	     -1.03372945	     26.97653996	      2.42187027	      2.46579674	    -11.94879171	     -1.09326794	    -10.09394983	      5.80019632	     34.42329832	      3.63194268	      4.95060210	    -55.36077191	     -1.33584559	     10.23517471	     39.43414271	     26.85780196	      7.20219885	   -213.32572161
      2.90000000	    -19.58482619	      0.38343771	    362.06999093	      0.18246618	      1.37739860	     -1.03352739	     26.69954280	      2.28529789	      2.58332423	    -11.81406602	     -0.95252891	    -10.20852606	      5.73990610	     35.00405920	      3.78412716	      4.87873135	    -55.07820391	     -0.91360675	     10.05291524	     38.85753255	     26.87979542	      6.98499608	   -213.28042476
      2.90500000	    -19.64246315	      0.55013160	    362.10582198	      0.18686493	      1.37785533	     -1.03335599	     26.39368181	      2.12922229	      2.70114852	    -11.65882915	     -0.83550499	    -10.30851458	      5.68014130	     35.53748290	      3.95319793	      4.80842871	    -54.70809586	     -0.54385670	      9.81533465	     38.36000925	     26.88832269	      6.75231500	   -213.24637089
      2.91000000	    -19.70054314	      0.71212275	    362.15329747	      0.19124483	      1.37827454	     -1.03319782	     26.09146917	      1.97381795	      2.80741947	    -11.51082166	     -0.68756533	    -10.42974031	      5.60879988	     36.05860739	      4.11940564	      4.74622023	    -54.28841126	     -0.17332908	      9.65601865	     37.80791031	     26.89424665	      6.51621513	   -213.22638365
      2.91500000	    -19.76515235	      0.87904750	    362.20280945	      0.19562265	      1.37867954	     -1.03307322	     25.79332246	      1.80891985	      2.92471260	    -11.35345508	     -0.57720680	    -10.53235920	      5.56475467	     36.56272203	      4.29620359	      4.69079503	    -53.78837176	      0.10906669	      9.35757715	     37.49796294	     26.90419281	      6.27553124	   -213.22677770
      2.92000000	    -19.81873652	      1.04795193	    362.25706366	      0.20002367	      1.37909125	     -1.03296674	     25.48145704	      1.64011640	      3.00889671	    -11.19697222	     -0.45571643	    -10.65668640	      5.49032673	     37.02862886	      4.47491968	      4.63341282	    -53.22475868	      0.39917774	      9.09005578	     37.04336278	     26.90880346	      6.03854350	   -213.19575139
      2.92500000	    -19.87802257	      1.21524529	    362.32304031	      0.20440886	      1.37946409	     -1.03286954	     25.17402728	      1.46750822	      3.10082911	    -11.03564532	     -0.33113768	    -10.76483751	      5.42871434	     37.48449176	      4.66026306	      4.59712166	    -52.60361658	      0.64204190	      8.83129092	     36.67783496	     26.91622159	      5.78472778	   -213.19657873
      2.93000000	    -19.94813795	      1.38907805	    362.39653776	      0.20878088	      1.37979244	     -1.03278603	     24.88742948	      1.28422175	      3.16537671	    -10.89242601	     -0.18968448	    -10.88002895	      5.39436940	     37.93143307	      4.85295940	      4.56397566	    -51.91593572	      0.83361145	      8.61799820	     36.46351688	     26.93117741	      5.52267209	   -213.21218213
      2.93500000	    -20.01164328	      1.55248201	    362.47072303	      0.21316760	      1.38010974	     -1.03271303	     24.58591250	      1.11064199	      3.23852349	    -10.73377979	     -0.06150947	    -10.98604133	      5.34189254	     38.34990006	      5.04127513	      4.54615795	    -51.17624453	      0.99332933	      8.32378935	     36.16656924	     26.94595822	      5.26905691	   -213.20240440
      2.94000000	    -20.06203976	      1.69571713	    362.54464678	      0.21753122	      1.38041791	     -1.03272169	     24.27441012	      0.95109588	      3.29600638	    -10.58011321	      0.05330632	    -11.05889619	      5.25176314	     38.73518713	      5.22425347	      4.55987667	    -50.39016175	      1.17632980	      8.01657458	     35.74454207	     26.93695145	      5.06394606	   -213.19286235
      2.94500000	    -20.15402091	      1.84706069	    362.63166673	      0.22189184	      1.38063236	     -1.03269687	     24.02162265	      0.78045916	      3.31191315	    -10.45457940	      0.18569921	    -11.15694859	      5.22314478	     39.14837458	      5.41058565	      4.57408026	    -49.54409592	      1.31646648	      7.86315112	     35.58183224	     26.97528902	      4.82725835	   -213.19465674
      2.95000000	    -20.23187390	      1.99372699	    362.70739356	      0.22626159	      1.38083493	     -1.03263689	     23.74835704	      0.62179463	      3.35445603	    -10.31716498	      0.33839147	    -11.23929299	      5.17754143	     39.52437294	      5.58299363	      4.57471295	    -48.64676406	      1.36890992	      7.56693149	     35.29519470	     27.00122829	      4.58398065	   -213.20392330
      2.95500000	    -20.29484482	      2.12262150	    362.78544252	      0.23061355	      1.38102871	     -1.03266686	     23.46549146	      0.47224989	      3.38276395	    -10.19135502	      0.47725506	    -11.27046127	      5.11668793	     39.86124728	      5.75726314	      4.62389920	    -47.69898868	      1.45389809	      7.28086488	     34.97399074	     27.00141860	      4.38805144	   -213.20080869
      2.96000000	    -20.36698349	      2.25604968	    362.86675619	      0.23498058	      1.38118046	     -1.03266621	     23.19601274	      0.31897007	      3.38435527	    -10.07369320	      0.63688488	    -11.30648767	      5.07457699	     40.18379596	      5.92716193	      4.66490233	    -46.69080853	      1.50154260	      7.06437060	     34.72403211	     27.01590439	      4.17743588	   -213.19625067
      2.96500000	    -20.44827284	      2.37409418	    362.94436605	      0.23933502	      1.38127381	     -1.03268184	     22.94642733	      0.18091459	      3.36936566	     -9.97226464	      0.80075698	    -11.32542221	      5.03404306	     40.49753730	      6.08199402	      4.71635773	    -45.63814106	      1.53317033	      6.82783738	     34.47791740	     27.03705224	      3.98672061	   -213.18620637
      2.97000000	    -20.51319690	      2.49807815	    363.01926410	      0.24370274	      1.38136364	     -1.03268836	     22.68110233	      0.03778567	      3.34615015	     -9.87663713	      0.97829343	    -11.32250412	      5.00121637	     40.76374417	      6.23678971	      4.76856246	    -44.52035672	      1.53408654	      6.59703781	     34.24678492	     27.03919944	      3.78906442	   -213.16962213
      2.97500000	    -20.61026719	      2.61266544	    363.08826062	      0.24805611	      1.38137659	     -1.03270239	     22.46133312	     -0.09487256	      3.33198774	     -9.79833443	      1.15734148	    -11.31993400	      4.97596698	     41.04403975	      6.37836554	      4.82725690	    -43.35192019	      1.50827089	      6.38876968	     34.05001654	     27.07514810	      3.60575168	   -213.14993971
      2.98000000	    -20.69764170	      2.72719305	    363.14922340	      0.25240879	      1.38137078	     -1.03271298	     22.23602478	     -0.22447656	      3.32286036	     -9.72793899	      1.34281644	    -11.30780106	      4.95805486	     41.28558135	      6.51148699	      4.88596828	    -42.12359397	      1.44975216	      6.16956803	     33.86974188	     27.09708058	      3.42951538	   -213.12340952
      2.98500000	    -20.76158927	      2.83699166	    363.20953219	      0.25678275	      1.38136845	     -1.03274148	     21.98356994	     -0.35098514	      3.27521701	     -9.65567798	      1.55096803	    -11.25525703	      4.93030981	     41.47005483	      6.63695270	      4.94870885	    -40.83149221	      1.37074284	      5.92312094	     33.70139713	     27.09214957	      3.26569731	   -213.07796749
      2.99000000	    -20.86584158	      2.94638167	    363.24960685	      0.26111851	      1.38126621	     -1.03271277	     21.79234554	     -0.46526793	      3.29843316	     -9.61061502	      1.74832862	    -11.25177686	      4.92014558	     41.67923281	      6.73847100	      4.99378756	    -39.49141784	      1.26042999	      5.73334293	     33.55679933	     27.12562212	      3.09513761	   -213.05989396
